<svg width="645" height="277" viewBox="0 0 645 277" fill="none" xmlns="http://www.w3.org/2000/svg">
<path fill-rule="evenodd" clip-rule="evenodd" d="M249.928 165.869C252.557 162.935 257.195 162.644 259.848 165.558C260.375 166.136 260.906 166.632 261.414 167.055C264.592 169.699 268.777 170.986 274.208 170.986C274.766 170.986 275.349 170.972 276.056 170.938L308.817 169.067C313.121 168.867 319.34 168.105 323.61 163.813C324.794 162.622 325.766 161.27 326.523 159.761C327.386 158.042 329.315 157.209 331.119 157.886C342.1 162.012 354.535 164.092 368.293 164.092C369.016 164.092 369.736 164.086 370.466 164.074C389.009 163.791 404.381 162.104 416.945 158.964C418.72 158.52 420.61 159.423 421.3 161.114C423.529 166.583 429.439 173.399 445.047 173.823L446.209 173.826C451.589 173.826 457.63 173.673 464.169 173.369C471.231 173.041 477.52 172.568 482.866 171.961C490.291 171.118 495.648 168.997 499.243 165.479C502.858 161.942 504.974 157.645 505.359 153.057L505.378 152.784C506.03 141.193 505.654 121.034 504.229 91.1543C502.836 61.8683 501.283 38.5574 499.614 21.8649L499.566 21.4807C498.653 14.9237 496.808 10.0152 493.918 6.45703C490.419 2.17354 485.023 0 477.88 0C477.303 0 476.706 0.0136272 476.091 0.0431529L434.567 1.96459C426.417 2.34199 420.641 5.10869 417.39 10.2015C415.012 13.9391 413.717 18.9365 413.425 25.5071C413.294 28.6516 413.22 32.3215 413.204 36.4937C413.199 37.8178 411.96 38.8024 410.67 38.4889L408.426 37.9435C399.066 35.6723 389.177 34.5196 379.035 34.5196C378.337 34.5196 377.637 34.5264 376.931 34.5378C366.23 34.7036 357.034 35.595 349.591 37.1909C341.991 38.8236 334.518 41.4267 327.382 44.9259C320.145 48.4724 313.673 52.7809 308.142 57.7279C306.979 58.7685 305.86 59.867 304.785 61.0223C302.227 63.7716 298.324 64.8697 294.709 63.8363C289.447 62.3316 283.659 61.575 277.376 61.575C276.1 61.575 274.8 61.6045 273.478 61.6684C265.608 62.0334 258.374 63.845 251.82 67.0777C248.449 68.741 244.57 68.6183 241.072 67.2382C238.682 66.2949 235.91 65.8198 232.772 65.8198C232.264 65.8198 231.74 65.8335 231.193 65.8584L210.605 66.8207C208.001 66.9422 206.416 64.001 207.972 61.9145C211.297 57.4565 213.487 51.5196 213.503 43.6025C213.518 34.2649 209.734 26.4209 202.544 20.9121C195.977 15.892 187.12 13.4368 175.462 13.4027H175.177C138.938 13.4027 133.492 33.2167 133.471 45.0281L133.469 47.2751C133.468 48.2543 132.771 49.0955 131.806 49.2809L127.48 50.1118C125.519 50.4885 123.544 49.5906 122.527 47.8758C121.973 46.9405 121.308 46.057 120.509 45.2511C117.29 42.0021 112.69 40.2423 106.831 40.0262L96.7667 39.656C94.8147 39.584 93.2904 37.9484 93.3606 36.0016L93.6502 28.0376C93.8483 22.5629 91.7009 17.8611 87.6181 14.8056C84.3809 12.3773 79.9448 11.1815 73.2287 10.9313L63.8277 10.588C63.3696 10.5721 62.9157 10.563 62.469 10.563C57.1117 10.563 52.3358 11.7701 48.2622 14.1598C45.0846 16.0286 40.094 19.5914 32.5577 25.3708C24.0023 31.932 20.4414 34.5469 18.9688 35.5791C17.8017 36.3953 16.5499 36.9366 15.1411 37.2341C9.94129 38.3322 6.04753 40.6356 3.5744 44.0753C1.36317 47.1426 0.243507 51.1009 0.0453836 56.5321C-0.111749 60.8678 0.136475 64.1191 0.831803 66.7408C1.47248 69.3126 3.33757 73.9935 8.67209 76.862C11.1327 78.185 12.7287 80.6811 12.6273 83.4667L12.1484 96.6469C11.3957 117.325 17.8632 132.06 31.5272 140.543C37.7256 144.23 44.7013 146.925 52.2561 148.551C59.3324 150.074 66.8846 150.992 74.7063 151.279C77.0883 151.367 79.4726 151.41 81.8577 151.41H81.86C87.1213 151.41 92.4672 151.192 97.7421 150.765C103.869 150.27 112.544 148.452 116.581 147.504C117.839 147.209 119.155 147.684 119.883 148.749C120.788 150.075 121.88 151.306 123.153 152.415C126.684 155.503 131.693 157.063 138.913 157.32C141.55 157.415 144.347 157.463 147.304 157.463C149.818 157.463 152.449 157.429 155.196 157.358C161.114 157.206 166.341 156.915 170.739 156.496C174.05 156.182 176.901 155.54 179.343 154.571C180.568 154.085 181.913 154.844 182.115 156.143L182.408 158.022C183.11 162.271 185.319 166.057 188.78 168.956C191.171 170.97 195.357 173.371 201.795 173.371H202.8C212.11 173.371 218.611 173.28 222.678 173.089C226.855 172.893 231.14 172.543 235.419 172.045C241.834 171.298 246.505 169.356 249.687 166.125C249.768 166.044 249.848 165.959 249.928 165.869Z" fill="#010E12"/>
<path fill-rule="evenodd" clip-rule="evenodd" d="M421.663 120.543C418.578 122.294 414.5 124.022 409.434 125.732C404.369 127.444 397.941 128.36 390.161 128.48C382.379 128.6 376.936 126.845 373.832 123.216C370.727 119.59 368.893 113.291 368.319 104.315C378.818 105.926 388.95 106.654 398.713 106.503C410.298 106.325 419.406 104.789 426.106 101.931C426.287 105.266 426.473 108.465 426.662 111.535C426.89 115.225 424.952 118.685 421.723 120.509C421.702 120.52 421.683 120.531 421.663 120.543ZM381.923 66.7481C388.997 66.6387 392.602 70.6007 392.734 78.6278C392.832 84.6164 388.212 87.6788 378.875 87.8227C378.59 87.8268 375.048 87.6118 368.248 87.1701C368.732 73.6881 373.288 66.8798 381.923 66.7481ZM495.197 90.72C493.801 61.4461 492.271 38.5219 490.612 21.9529C489.957 17.2702 488.78 13.8891 487.093 11.8161C485.399 9.74461 482.175 8.81768 477.411 9.03834L435.836 10.9588C431.072 11.178 427.984 12.3963 426.57 14.6105C425.155 16.8274 424.346 20.3 424.136 25.0229C423.846 31.9524 423.846 41.4552 424.132 53.4796C419.759 50.6783 414.013 48.4028 406.853 46.6659C397.614 44.4271 387.936 43.3821 377.822 43.5377C367.705 43.6932 359.227 44.5059 352.388 45.9703C345.546 47.4388 338.897 49.7503 332.44 52.9118C325.982 56.073 320.311 59.8341 315.43 64.1981C311.063 68.0978 307.553 72.9058 304.802 78.5207C304.777 78.5014 304.756 78.4795 304.732 78.4606C297.242 72.6673 287.179 70.0656 274.552 70.6549C261.917 71.2438 251.414 76.2835 243.041 85.7704L243.033 85.6008C242.497 81.5316 241.532 78.6763 240.138 77.0359C238.742 75.3944 236.1 74.6658 232.216 74.8467L198.78 76.405C194.891 76.5863 192.36 77.5575 191.184 79.3186C190.006 81.0786 189.321 84.7787 189.128 90.4179C188.936 96.0564 189.198 106.48 189.913 121.686C190.631 136.893 191.563 148.166 192.711 155.504C193.029 157.423 194.023 159.084 195.694 160.482C197.362 161.885 199.572 162.579 202.322 162.562C211.945 162.569 218.756 162.478 222.759 162.291C226.757 162.105 230.781 161.773 234.826 161.302C238.869 160.832 241.657 159.819 243.189 158.268C244.722 156.72 245.614 154.972 245.866 153.027C246.296 147.546 246.157 137.318 245.451 122.338L244.963 111.955C244.812 108.779 245.75 106.261 247.786 104.401C249.816 102.544 252.119 101.555 254.691 101.436C257.264 101.316 259.447 102.066 261.242 103.689C263.036 105.311 264.015 107.824 264.176 111.229L265.958 152.771C266.081 155.383 266.886 157.308 268.377 158.545C269.868 159.783 272.44 160.317 276.101 160.146L309.007 158.271C313.122 158.078 315.862 157.299 317.23 155.925C318.597 154.556 319.269 152.392 319.246 149.435C319.227 147.34 319.115 143.819 318.908 138.931C319.333 139.242 319.746 139.559 320.185 139.862C333.571 149.118 350.521 153.585 371.04 153.269C395.8 152.89 414.854 149.873 428.21 144.225C428.597 144.067 428.927 143.907 429.292 143.748C429.758 147.853 430.24 151.39 430.74 154.353C431.438 159.869 436.493 162.757 445.909 163.016C451.407 163.038 457.621 162.891 464.55 162.571C471.479 162.251 477.498 161.797 482.607 161.217C487.713 160.637 491.235 159.396 493.172 157.504C495.105 155.612 496.163 153.551 496.35 151.323C496.976 140.197 496.592 119.995 495.197 90.72Z" fill="white"/>
<path fill-rule="evenodd" clip-rule="evenodd" d="M114.8 109.615C113.414 109.564 110.742 110.174 106.791 111.436C102.834 112.705 99.5391 113.288 96.896 113.192C91.4809 112.995 88.7315 111.507 85.8784 108.581C83.0199 105.657 81.5442 102.106 81.4456 97.9326L82.2533 75.885C82.3105 74.2948 82.6073 73.0779 83.1434 72.2389C83.6749 71.4006 84.8241 71.0126 86.589 71.0763L106.228 71.7924C109.248 71.9029 111.539 71.3134 113.1 70.0195C114.659 68.7271 115.529 65.6642 115.706 60.8227C115.883 55.9858 115.27 52.8692 113.873 51.467C112.475 50.0674 110.138 49.3065 106.867 49.1869L86.6618 48.4508C84.3951 48.3671 83.3095 47.0384 83.4048 44.4665L84.0426 27.0135C84.1238 24.8078 83.4295 23.1591 81.9546 22.0618C80.4846 20.9665 77.5428 20.3384 73.1366 20.1773L63.6953 19.8327C59.666 19.6858 56.2684 20.4211 53.4973 22.0354C50.7261 23.6539 45.8094 27.1547 38.7441 32.5359C31.6735 37.9217 27.009 41.3979 24.7484 42.9719C22.4825 44.5451 19.986 45.6211 17.2537 46.1949C14.5214 46.7693 12.6617 47.7469 11.666 49.1193C10.6681 50.494 10.1103 52.8315 9.98955 56.1401C9.86877 59.4469 10.0311 61.9075 10.4761 63.5154C11.2378 66.7342 14.0775 68.4312 18.9855 68.6101C21.7547 68.7117 23.1074 69.7443 23.0334 71.7021L22.1403 96.1383C21.5208 113.041 26.3864 124.688 36.7434 131.074C42.0464 134.21 47.9823 136.482 54.5512 137.886C61.1173 139.291 68.0492 140.126 75.3523 140.392C82.6523 140.659 88.584 140.425 95.9187 139.833C103.251 139.244 108.953 138.348 113.035 137.145C116.99 135.817 119.1 131.604 119.359 124.497C119.72 114.7 118.199 109.739 114.8 109.615Z" fill="white"/>
<path fill-rule="evenodd" clip-rule="evenodd" d="M179.881 71.3644C179.619 68.6296 179.266 66.3639 178.831 64.5238C195.263 63.2122 203.517 55.9851 203.541 42.8025C203.552 36.5454 201.185 31.6055 196.445 27.9855C191.698 24.3681 184.652 22.5432 175.293 22.5163C153.879 22.4561 143.161 29.706 143.136 44.2633C143.126 50.0505 145.238 54.5989 149.435 57.9346L134.386 58.3197C130.381 58.4219 127.755 59.362 126.507 61.1362C125.254 62.9124 124.468 66.652 124.147 72.3529C123.824 78.0569 123.87 88.7189 124.276 104.338C124.685 119.959 125.399 131.533 126.424 139.061C126.709 141.031 127.696 142.748 129.384 144.214C131.071 145.683 134.274 146.503 138.992 146.67C143.707 146.839 148.951 146.852 154.722 146.704C160.488 146.557 165.46 146.283 169.633 145.886C173.803 145.491 176.694 144.515 178.304 142.963C179.914 141.412 180.87 139.645 181.172 137.661C181.707 131.139 181.768 119.951 181.354 104.099C180.941 88.2453 180.447 77.3352 179.881 71.3644Z" fill="white"/>
<path fill-rule="evenodd" clip-rule="evenodd" d="M267.77 187.336L245.851 253.984H230.124L216.658 213.352L203.193 253.984H187.466L165.547 187.336H183.141L195.624 228.455L209.778 187.336H223.539L237.693 228.455L250.176 187.336H267.77Z" fill="#010E12"/>
<path fill-rule="evenodd" clip-rule="evenodd" d="M301.657 229.715C301.657 222.806 297.03 217.871 290.435 217.871C283.741 217.871 279.114 222.806 279.114 229.715C279.114 236.724 283.741 241.559 290.435 241.559C297.03 241.559 301.657 236.724 301.657 229.715ZM316.62 229.715C316.62 244.521 305.792 254.884 290.435 254.884C275.078 254.884 264.151 244.521 264.151 229.715C264.151 215.009 275.078 204.448 290.435 204.448C305.792 204.448 316.62 215.009 316.62 229.715Z" fill="#010E12"/>
<path fill-rule="evenodd" clip-rule="evenodd" d="M357.328 220.541C349.532 220.837 344.598 222.909 340.848 226.559V253.984H324.762V206.138H340.848V211.268C345.091 207.617 350.223 205.349 357.328 205.349V220.541Z" fill="#010E12"/>
<path fill-rule="evenodd" clip-rule="evenodd" d="M387.298 236.673L380.676 243.706V253.083H364.565V183.733H380.676V223.389L397.281 205.71H416.357L398.17 225.05L417.938 253.083H398.764L387.298 236.673Z" fill="#010E12"/>
<path fill-rule="evenodd" clip-rule="evenodd" d="M442.604 243.139C446.861 243.139 449.534 241.955 449.534 239.882C449.534 238.204 447.653 237.019 444.485 236.526L434.783 234.848C426.565 233.466 420.724 228.827 420.724 220.437C420.724 210.37 429.337 204.448 442.109 204.448C453.494 204.448 463.791 208.297 464.484 220.931H450.326C450.029 217.378 446.564 215.798 442.109 215.798C437.951 215.798 436.07 217.279 436.07 219.056C436.07 220.734 437.258 222.214 441.119 222.905L450.029 224.385C458.939 226.063 464.979 230.407 464.979 238.894C464.979 249.949 455.079 254.884 442.505 254.884C430.129 254.884 419.932 249.851 418.843 237.118L433.099 237.217C433.792 241.362 437.555 243.139 442.604 243.139Z" fill="#010E12"/>
<path fill-rule="evenodd" clip-rule="evenodd" d="M522.875 226.027V253.083H506.819V228.566C506.819 221.826 503.35 218.798 497.998 218.798C495.124 218.798 492.051 220.264 489.276 223.292V253.083H473.121V183.733H489.276V208.836C493.141 206.003 497.304 204.44 502.458 204.44C514.549 204.44 522.875 212.547 522.875 226.027Z" fill="#010E12"/>
<path fill-rule="evenodd" clip-rule="evenodd" d="M568.523 229.715C568.523 222.806 563.896 217.871 557.301 217.871C550.606 217.871 545.979 222.806 545.979 229.715C545.979 236.724 550.606 241.559 557.301 241.559C563.896 241.559 568.523 236.724 568.523 229.715ZM583.485 229.715C583.485 244.521 572.657 254.884 557.301 254.884C541.944 254.884 531.017 244.521 531.017 229.715C531.017 215.009 541.944 204.448 557.301 204.448C572.657 204.448 583.485 215.009 583.485 229.715Z" fill="#010E12"/>
<mask id="mask0" mask-type="alpha" maskUnits="userSpaceOnUse" x="592" y="205" width="53" height="72">
<path d="M592.546 205.517H644.949V276.5H592.546V205.517Z" fill="white"/>
</mask>
<g mask="url(#mask0)">
<path fill-rule="evenodd" clip-rule="evenodd" d="M629.404 230.185C629.404 223.652 624.711 218.387 618.259 218.387C614.837 218.387 611.415 219.46 608.482 222.775V237.596C611.415 240.911 614.837 241.886 618.259 241.886C624.711 241.886 629.404 236.718 629.404 230.185ZM644.949 230.185C644.949 244.226 634.195 254.854 621.388 254.854C616.206 254.854 612.002 253.489 608.482 251.344V276.5H592.546V206.589H608.482V209.027C612.002 206.882 616.206 205.517 621.388 205.517C634.195 205.517 644.949 216.047 644.949 230.185Z" fill="#010E12"/>
</g>
</svg>
